<svg xmlns="http://www.w3.org/2000/svg" width="1200" height="420" viewBox="0 0 1200 420" role="img" aria-labelledby="title desc">
  <title id="title">Shisui Data</title>
  <desc id="desc">From raw signals to trustworthy decisions. Open-source systems for agent-native data work.</desc>

  <defs>
    <linearGradient id="background" x1="0" y1="0" x2="1" y2="1">
      <stop offset="0" stop-color="#0c1714"/>
      <stop offset="0.58" stop-color="#10221c"/>
      <stop offset="1" stop-color="#18372b"/>
    </linearGradient>
    <linearGradient id="signal" x1="0" y1="1" x2="1" y2="0">
      <stop offset="0" stop-color="#d4aa5a" stop-opacity="0.18"/>
      <stop offset="0.46" stop-color="#e1c17f" stop-opacity="0.9"/>
      <stop offset="1" stop-color="#f0d9a2"/>
    </linearGradient>
    <pattern id="grid" width="40" height="40" patternUnits="userSpaceOnUse">
      <path d="M40 0H0V40" fill="none" stroke="#cce0d6" stroke-opacity="0.055"/>
    </pattern>
    <filter id="softGlow" x="-30%" y="-30%" width="160%" height="160%">
      <feGaussianBlur stdDeviation="10"/>
    </filter>
  </defs>

  <rect width="1200" height="420" rx="24" fill="url(#background)"/>
  <rect width="1200" height="420" rx="24" fill="url(#grid)"/>

  <g opacity="0.72">
    <path d="M727 336C781 315 793 253 844 247C897 241 919 298 970 274C1018 251 1028 167 1092 151C1120 144 1143 155 1168 174" fill="none" stroke="#4f7a67" stroke-width="2"/>
    <path d="M727 354C783 352 807 322 851 317C910 310 935 340 983 318C1040 292 1042 226 1104 207C1127 200 1147 202 1168 213" fill="none" stroke="#315a49" stroke-width="2"/>
    <path d="M727 366C793 368 816 354 863 350C915 346 951 363 998 346C1051 327 1080 287 1124 280C1142 277 1155 278 1168 282" fill="none" stroke="#274a3d" stroke-width="2"/>
  </g>

  <path d="M748 315L813 287L875 299L935 230L1002 250L1084 132L1168 105" fill="none" stroke="#d4aa5a" stroke-opacity="0.16" stroke-width="18" filter="url(#softGlow)"/>
  <path d="M748 315L813 287L875 299L935 230L1002 250L1084 132L1168 105" fill="none" stroke="url(#signal)" stroke-width="3" stroke-linecap="round" stroke-linejoin="round"/>

  <g fill="#efd69d">
    <circle cx="748" cy="315" r="5"/>
    <circle cx="813" cy="287" r="5"/>
    <circle cx="875" cy="299" r="5"/>
    <circle cx="935" cy="230" r="5"/>
    <circle cx="1002" cy="250" r="5"/>
    <circle cx="1084" cy="132" r="5"/>
    <circle cx="1168" cy="105" r="5"/>
  </g>

  <g transform="translate(58 52)">
    <g fill="none" stroke="#d9ba77" stroke-width="2.5" stroke-linecap="round" stroke-linejoin="round">
      <path d="M15 38V10M15 18L7 12M15 26L24 18M37 38V2M37 13L29 7M37 22L46 14M59 38V14M59 22L51 17M59 30L68 23"/>
      <path d="M3 38H71" stroke-opacity="0.5"/>
    </g>
    <text x="92" y="30" fill="#f1eee5" font-family="ui-monospace, SFMono-Regular, Menlo, Consolas, monospace" font-size="18" font-weight="700" letter-spacing="4">SHISUI DATA</text>
  </g>

  <text x="58" y="164" fill="#f4f1e8" font-family="Georgia, 'Times New Roman', serif" font-size="58" font-weight="700" letter-spacing="-1.2">
    <tspan x="58" dy="0">From raw signals</tspan>
    <tspan x="58" dy="68">to trustworthy decisions.</tspan>
  </text>

  <text x="61" y="315" fill="#aac0b5" font-family="ui-monospace, SFMono-Regular, Menlo, Consolas, monospace" font-size="17" letter-spacing="0.8">OPEN-SOURCE SYSTEMS FOR AGENT-NATIVE DATA WORK</text>

  <g transform="translate(60 365)" font-family="ui-monospace, SFMono-Regular, Menlo, Consolas, monospace" font-size="12" letter-spacing="1.2">
    <text x="0" fill="#d4aa5a">01</text>
    <text x="27" fill="#81998e">CONSTRAINED</text>
    <text x="150" fill="#d4aa5a">02</text>
    <text x="177" fill="#81998e">REVIEWABLE</text>
    <text x="296" fill="#d4aa5a">03</text>
    <text x="323" fill="#81998e">EVIDENCE-DRIVEN</text>
  </g>

  <rect x="1" y="1" width="1198" height="418" rx="23" fill="none" stroke="#d8bd81" stroke-opacity="0.22" stroke-width="2"/>
</svg>
